<?xml version="1.0" standalone="no"?>
<!DOCTYPE svg PUBLIC "-//W3C//DTD SVG 20010904//EN"
 "http://www.w3.org/TR/2001/REC-SVG-20010904/DTD/svg10.dtd">
<svg version="1.0" xmlns="http://www.w3.org/2000/svg"
 width="661.000000pt" height="377.000000pt" viewBox="0 0 661.000000 377.000000"
 preserveAspectRatio="xMidYMid meet">

<g transform="translate(0.000000,377.000000) scale(0.100000,-0.100000)"
fill="#000000" stroke="none">
<path d="M4237 2584 c-3 -18 -16 -44 -29 -58 -19 -23 -35 -28 -93 -35 -72 -7
-70 -10 26 -25 47 -8 75 -40 92 -104 l13 -52 13 51 c20 76 45 100 116 109 33
4 49 8 35 9 -82 4 -143 45 -158 105 l-8 31 -7 -31z"/>
<path d="M4652 2340 c-1 -19 -11 -49 -22 -67 -22 -38 -104 -82 -152 -84 -31
-1 -31 -2 9 -9 58 -12 120 -45 140 -77 10 -14 20 -47 24 -72 l6 -46 2 47 c2
74 48 120 146 144 40 10 44 13 20 13 -82 3 -162 70 -168 141 -3 38 -4 40 -5
10z"/>
<path d="M2065 2200 c-77 -4 -284 -13 -460 -20 -176 -6 -332 -16 -348 -22 -15
-6 -36 -23 -47 -38 -18 -26 -20 -45 -20 -218 l0 -190 -97 -7 c-143 -9 -143
-13 0 -14 l127 -1 -6 194 c-6 172 -5 198 9 220 10 14 26 30 36 35 17 9 368 27
939 47 l193 7 25 -24 c14 -13 35 -41 45 -61 l19 -38 198 2 197 3 -191 2 -191
3 -18 41 c-10 22 -28 47 -39 55 -19 14 0 15 181 12 134 -2 196 0 185 7 -21 12
-547 16 -737 5z"/>
<path d="M2877 2143 c30 -28 53 -69 53 -94 0 -6 -57 -7 -152 -3 -100 4 -150 3
-143 -3 18 -18 194 -138 228 -155 26 -14 69 -17 239 -20 114 -2 197 0 185 3
-13 4 -50 26 -84 51 -72 53 -213 128 -241 128 -12 0 -22 9 -26 23 -7 30 -42
74 -69 89 -14 7 -11 1 10 -19z m160 -153 c51 -22 167 -100 159 -107 -3 -3 -56
0 -117 7 -61 6 -135 9 -165 5 -45 -5 -54 -4 -62 12 -14 26 -24 92 -16 104 9
15 150 1 201 -21z"/>
<path d="M3961 2112 c-1 -13 -6 -32 -12 -44 -13 -24 -82 -57 -124 -59 -19 -1
-10 -4 23 -9 63 -9 112 -48 113 -89 0 -24 1 -23 12 8 16 45 52 70 113 80 30 5
38 9 21 10 -64 3 -120 43 -137 97 -7 26 -8 26 -9 6z"/>
<path d="M1930 2073 c-63 -2 -209 -7 -325 -12 -256 -11 -247 -5 -243 -145 l3
-91 210 -6 c300 -9 683 -11 695 -4 5 3 9 27 8 53 l-1 47 -6 -45 -6 -45 -165
-3 c-91 -2 -189 0 -217 3 l-53 6 0 115 0 114 93 1 c50 1 137 5 192 9 l100 7
-85 -1 c-47 0 -137 -2 -200 -3z m-110 -128 l0 -115 -222 2 -223 3 -3 86 c-3
102 6 118 71 120 36 1 97 4 345 17 l32 2 0 -115z"/>
<path d="M2388 2034 c-13 -13 -9 -151 5 -162 17 -13 174 -48 277 -61 180 -22
190 -23 190 -13 0 5 -24 30 -52 55 -184 157 -220 178 -332 184 -44 3 -84 2
-88 -3z"/>
<path d="M3411 1820 c19 -10 41 -26 48 -34 12 -14 4 -16 -82 -16 l-94 0 -7
-31 c-3 -17 -3 -35 -1 -40 3 -5 95 -8 203 -7 108 2 162 4 119 6 -78 3 -79 3
-92 35 -19 45 -91 108 -122 107 -4 -1 8 -9 28 -20z m73 -66 c3 -8 2 -12 -4 -9
-6 3 -10 10 -10 16 0 14 7 11 14 -7z"/>
<path d="M2964 1799 c14 -11 26 -29 26 -40 0 -23 20 -28 130 -31 l85 -3 3 27
c4 31 13 27 -139 52 -129 22 -138 21 -105 -5z"/>
<path d="M2713 1710 c-36 -14 -27 -18 20 -9 38 7 67 6 137 -7 l25 -4 -25 15
c-28 16 -122 19 -157 5z"/>
<path d="M1478 1703 c12 -2 30 -2 40 0 9 3 -1 5 -23 4 -22 0 -30 -2 -17 -4z"/>
<path d="M797 1673 c-6 -9 -86 -221 -133 -350 l-33 -93 68 0 69 0 6 35 7 36
86 -3 87 -3 8 -32 9 -33 69 0 69 0 -28 78 c-47 126 -122 325 -131 350 -9 20
-16 22 -79 22 -38 0 -72 -3 -74 -7z m98 -196 c13 -42 20 -78 17 -81 -10 -11
-92 -6 -92 5 0 16 44 158 48 154 2 -2 14 -37 27 -78z"/>
<path d="M1160 1455 l0 -225 55 0 56 0 -3 160 c-2 88 -1 160 2 160 3 0 12 -26
19 -58 7 -32 25 -103 40 -157 l28 -100 49 -3 50 -3 38 153 c21 84 42 160 47
168 5 9 9 -57 9 -152 l0 -168 55 0 55 0 0 225 0 225 -90 0 -89 0 -10 -37 c-5
-21 -21 -82 -35 -136 -13 -54 -26 -101 -29 -103 -2 -3 -20 57 -38 133 l-35
138 -87 3 -87 3 0 -226z"/>
<path d="M1760 1455 l0 -225 185 0 185 0 0 50 0 50 -121 0 -120 0 3 43 3 42
100 1 100 2 3 41 3 40 -103 3 -103 3 -3 33 -3 32 115 0 116 0 0 55 0 55 -180
0 -180 0 0 -225z"/>
<path d="M2210 1455 l0 -225 185 0 185 0 0 50 0 50 -121 0 -120 0 3 43 3 42
108 3 107 3 0 39 0 39 -107 3 -108 3 -3 32 -3 32 118 3 118 3 0 50 0 50 -182
3 -183 2 0 -225z"/>
<path d="M2668 1674 c-5 -4 -8 -106 -8 -226 l0 -218 70 0 70 0 0 89 c0 50 3
92 8 94 23 14 55 -18 94 -98 l42 -85 79 0 c77 0 78 0 66 23 -47 89 -94 159
-112 166 -21 8 -20 9 8 24 96 49 105 157 18 214 -21 14 -56 18 -177 21 -83 2
-154 1 -158 -4z m250 -96 c7 -7 12 -20 12 -29 0 -32 -29 -49 -81 -49 l-49 0 0
45 0 45 53 0 c29 0 58 -5 65 -12z"/>
<path d="M3276 1671 c-3 -5 -28 -69 -55 -143 -27 -73 -63 -168 -80 -211 -17
-43 -31 -80 -31 -82 0 -3 31 -5 69 -5 l69 0 6 35 7 35 84 0 83 0 12 -35 12
-35 70 0 c52 0 69 3 65 13 -5 11 -23 59 -127 332 l-39 100 -69 3 c-39 2 -73
-1 -76 -7z m101 -194 c12 -39 23 -75 23 -79 0 -5 -22 -8 -50 -8 -29 0 -50 4
-50 11 0 21 43 159 48 154 3 -3 16 -38 29 -78z"/>
<path d="M3640 1455 l0 -225 70 0 70 0 0 90 0 90 75 0 75 0 0 -90 0 -90 705 0
705 0 0 30 0 30 -635 0 -635 0 0 195 0 196 -67 -3 -68 -3 -3 -77 -3 -78 -74 0
-75 0 0 80 0 80 -70 0 -70 0 0 -225z"/>
<path d="M4220 1670 c-42 -10 -70 -42 -70 -81 0 -38 28 -65 82 -79 67 -19 88
-29 88 -43 0 -38 -71 -52 -92 -17 -16 26 -88 29 -88 4 0 -49 54 -84 130 -84
85 0 130 34 130 100 0 44 -37 76 -109 96 -46 13 -61 22 -61 36 0 23 52 25 70
3 16 -20 90 -21 90 -1 0 22 -32 53 -69 65 -38 12 -51 12 -101 1z"/>
<path d="M4430 1635 l0 -35 50 0 50 0 0 -115 0 -115 40 0 40 0 0 115 0 115 50
0 50 0 0 35 0 35 -140 0 -140 0 0 -35z"/>
<path d="M4753 1527 c-29 -79 -53 -147 -53 -150 0 -4 18 -7 40 -7 34 0 42 4
50 25 9 23 15 25 65 25 50 0 56 -2 65 -25 8 -21 16 -25 50 -25 28 0 40 4 38
13 -2 6 -25 74 -52 150 l-50 137 -50 0 -51 0 -52 -143z m131 -14 c7 -21 4 -23
-29 -23 -30 0 -35 3 -31 18 3 9 8 31 12 47 13 59 17 55 48 -42z"/>
<path d="M5050 1520 l0 -150 45 0 45 0 0 60 c0 53 2 60 19 60 14 0 30 -19 53
-60 l33 -60 47 0 48 0 -25 50 c-14 28 -34 55 -44 62 -18 11 -17 13 15 43 36
34 41 58 22 99 -15 34 -60 46 -170 46 l-88 0 0 -150z m180 56 c0 -25 -16 -36
-55 -36 -18 0 -24 7 -27 30 -4 29 -4 30 39 30 39 0 43 -2 43 -24z"/>
<path d="M2027 1116 c-46 -20 -67 -62 -67 -133 0 -106 44 -153 145 -153 51 0
60 3 91 34 19 19 34 38 34 43 0 13 -64 35 -68 23 -13 -38 -71 -52 -108 -26
-26 19 -25 117 2 147 22 24 68 25 93 0 19 -19 71 -19 71 1 0 61 -114 99 -193
64z"/>
<path d="M2354 1115 c-49 -22 -69 -60 -69 -135 0 -78 19 -114 70 -136 47 -19
121 -18 157 4 91 52 89 218 -3 264 -41 20 -112 22 -155 3z m130 -67 c23 -33
21 -113 -4 -138 -30 -30 -85 -27 -106 5 -19 29 -15 114 6 140 20 24 86 20 104
-7z"/>
<path d="M2644 1121 c-2 -2 -4 -54 -4 -114 l0 -109 34 -34 c31 -31 39 -34 96
-34 73 0 115 20 130 63 5 17 10 77 10 133 l0 104 -40 0 -40 0 0 -108 c0 -119
-5 -132 -55 -132 -50 0 -55 13 -55 132 l0 108 -36 -3 c-19 -1 -37 -4 -40 -6z"/>
<path d="M2994 1121 c-2 -2 -4 -69 -4 -148 l0 -143 40 0 40 0 0 60 c0 56 1 60
24 60 18 0 30 -13 55 -60 32 -60 32 -60 78 -60 51 0 51 2 8 70 -14 22 -32 43
-40 46 -11 4 -5 14 20 39 19 18 35 42 35 53 0 35 -22 72 -46 78 -27 7 -204 11
-210 5z m167 -67 c21 -26 -1 -49 -47 -49 -40 0 -53 17 -40 51 7 19 70 18 87
-2z"/>
<path d="M3338 1122 c-16 -3 -18 -19 -18 -148 l0 -144 40 0 40 0 0 149 c0 148
0 148 -22 148 -13 0 -31 -2 -40 -5z"/>
<path d="M3480 978 l0 -148 120 0 120 0 0 30 0 29 -77 3 -78 3 -3 33 -3 32 73
0 74 0 2 30 2 30 -76 0 c-72 0 -75 1 -72 23 3 20 9 22 81 25 78 3 78 3 75 29
l-3 27 -117 0 -118 1 0 -147z"/>
<path d="M3787 1122 c-2 -4 -4 -71 -5 -149 l0 -143 44 0 44 0 0 61 c0 56 1 60
22 57 14 -2 31 -22 52 -60 30 -56 32 -58 74 -58 23 0 42 2 42 5 0 14 -43 88
-61 106 -20 20 -20 20 11 45 23 19 30 34 30 60 0 37 -28 74 -57 75 -10 0 -57
2 -105 4 -48 2 -89 1 -91 -3z m157 -58 c9 -3 16 -16 16 -29 0 -25 -17 -35 -61
-35 -27 0 -29 3 -29 35 0 32 2 35 29 35 16 0 36 -3 45 -6z"/>
</g>
</svg>
